<svg width="14" height="10" viewBox="0 0 14 10" fill="none" xmlns="http://www.w3.org/2000/svg">
<path fill-rule="evenodd" clip-rule="evenodd" d="M12.7264 4.99998C12.7264 4.83123 12.6593 4.66939 12.54 4.55006C12.4207 4.43074 12.2589 4.3637 12.0901 4.3637L0.637071 4.3637C0.468319 4.3637 0.306479 4.43074 0.187153 4.55006C0.0678272 4.66939 0.00079155 4.83123 0.00079155 4.99998C0.00079155 5.16873 0.0678272 5.33057 0.187153 5.4499C0.306479 5.56922 0.468319 5.63626 0.637071 5.63626L12.0901 5.63626C12.2589 5.63626 12.4207 5.56922 12.54 5.4499C12.6593 5.33057 12.7264 5.16873 12.7264 4.99998Z" fill="white"/>
<path fill-rule="evenodd" clip-rule="evenodd" d="M13.8131 5.45047C13.8723 5.39136 13.9193 5.32115 13.9514 5.24385C13.9835 5.16655 14 5.08368 14 4.99998C14 4.91629 13.9835 4.83342 13.9514 4.75612C13.9193 4.67882 13.8723 4.6086 13.8131 4.5495L9.99539 0.73182C9.87592 0.612344 9.71387 0.545223 9.54491 0.545223C9.37594 0.545223 9.2139 0.612344 9.09442 0.73182C8.97494 0.851296 8.90782 1.01334 8.90782 1.18231C8.90782 1.35127 8.97494 1.51332 9.09442 1.63279L12.4629 4.99998L9.09442 8.36717C8.97494 8.48665 8.90782 8.64869 8.90782 8.81766C8.90782 8.98662 8.97494 9.14867 9.09442 9.26814C9.2139 9.38762 9.37594 9.45474 9.54491 9.45474C9.71387 9.45474 9.87592 9.38762 9.99539 9.26814L13.8131 5.45047Z" fill="white"/>
</svg>
