<svg width="16" height="16" viewBox="0 0 16 16" fill="none" xmlns="http://www.w3.org/2000/svg">
<g clip-path="url(#clip0_187_685)">
<path d="M5.5 2.0625L3.625 2.6875L1.75 3.9375V8L5.1875 11.4375L8 13.625L12.375 9.875L13.9375 7.375V4.5625L12.6875 2.6875L10.1875 2.375L8.3125 3.9375L7.6875 3.3125L5.5 2.0625Z" fill="#C0C0CD"/>
<path d="M8.78054 2.39434C8.49583 2.61931 8.23487 2.8863 8.00002 3.19143C7.7652 2.88628 7.50418 2.61931 7.21958 2.39436L7.21957 2.39435C6.55407 1.86841 5.79462 1.6 4.96617 1.6C3.86173 1.6 2.84462 2.05247 2.10443 2.8728L2.10442 2.87281C1.37363 3.68281 0.975 4.78484 0.975 5.97244C0.975 7.20279 1.4256 8.3228 2.37225 9.49003L2.37226 9.49004C3.21295 10.5265 4.41756 11.5755 5.79623 12.776L5.80291 12.7818L5.80404 12.7828L5.80533 12.7839L5.80532 12.7839L5.80646 12.7849C6.27898 13.1964 6.81379 13.6621 7.36841 14.1577C7.54274 14.3137 7.767 14.4 8 14.4C8.23287 14.4 8.45721 14.3137 8.63143 14.1579C9.18732 13.6612 9.723 13.1947 10.1964 12.7826L10.1964 12.7826L10.2053 12.7748C11.5833 11.5748 12.7874 10.5262 13.6278 9.48993C14.5745 8.3228 15.025 7.20278 15.025 5.97244C15.025 4.78485 14.6265 3.68281 13.8957 2.87281L13.8957 2.8728C13.1555 2.05247 12.1383 1.6 11.0339 1.6C10.2055 1.6 9.44604 1.86841 8.78054 2.39434ZM8.78054 2.39434L8.87354 2.51204M8.78054 2.39434L8.87354 2.51204M8.87354 2.51204C9.51335 2.00641 10.2402 1.75 11.0339 1.75C12.0958 1.75 13.0725 2.18445 13.7843 2.97329L8.09326 3.31651C8.32781 3.00632 8.58885 2.73699 8.87354 2.51204ZM2.91923 3.63161C3.44828 3.04536 4.1742 2.72303 4.96617 2.72303C5.54229 2.72303 6.07089 2.90941 6.54083 3.28071C6.96225 3.61374 7.25861 4.03759 7.43374 4.33759L7.43376 4.33762C7.55282 4.54143 7.76481 4.66547 8 4.66547C8.23519 4.66547 8.44718 4.54143 8.56624 4.33762L8.43671 4.26196L8.56624 4.33762C8.74149 4.0376 9.03785 3.61375 9.45916 3.28072C9.92909 2.90942 10.4577 2.72303 11.0339 2.72303C11.8258 2.72303 12.5518 3.04536 13.0808 3.6316C13.6187 4.22784 13.9196 5.05757 13.9196 5.97244C13.9196 6.92837 13.5745 7.78984 12.7748 8.77592C11.9971 9.73484 10.837 10.7455 9.47696 11.93C9.02993 12.3191 8.52638 12.7576 7.99904 13.2258C7.4746 12.7585 6.97189 12.3207 6.52589 11.9323L6.52463 11.9313L6.52337 11.9302C6.52316 11.93 6.52295 11.9298 6.52274 11.9297C5.16282 10.7454 4.00293 9.7347 3.22534 8.77592L3.22534 8.77592C2.42554 7.78983 2.08035 6.92836 2.08035 5.97244C2.08035 5.05757 2.3813 4.22785 2.91923 3.63161ZM2.91923 3.63161L2.80787 3.53112M2.91923 3.63161L2.80787 3.53112M2.80787 3.53112C3.36544 2.91326 4.13187 2.57303 4.96617 2.57303C5.57724 2.57303 6.13837 2.77155 6.63383 3.16302M2.80787 3.53112C2.24202 4.15831 1.93035 5.02529 1.93035 5.97244C1.93035 6.9718 2.29384 7.86558 3.10884 8.87041L6.63383 3.16302M6.63383 3.16302C7.07548 3.51204 7.38306 3.95325 7.56328 4.26196L6.63383 3.16302ZM4.96617 1.75C5.75988 1.75 6.48676 2.00641 7.12657 2.51204L5.90254 12.6697C4.51729 11.4634 3.32106 10.4217 2.48875 9.39555C1.55836 8.24837 1.125 7.16068 1.125 5.97244C1.125 4.81797 1.51241 3.7529 2.21579 2.97329C2.92757 2.18445 3.90423 1.75 4.96617 1.75Z" fill="#C0C0CD" stroke="#C0C0CD" stroke-width="0.3"/>
</g>
<defs>
<clipPath id="clip0_187_685">
<rect width="15" height="15" fill="white" transform="translate(0.5 0.5)"/>
</clipPath>
</defs>
</svg>
